<svg xmlns="http://www.w3.org/2000/svg" viewBox="0 0 30 18"><path fill="#919FA8" fill-rule="evenodd" d="M6 0h7.13C15 0 16.5 1.13 16.5 3h-9c-2.25 0-3 .75-3 2.25s.75 2.25 3 2.25h3.38c1.87 0 3.37 1.13 3.37 3H7.5c-2.25 0-3 .75-3 2.25S5.25 15 7.5 15h1.13C10.5 15 12 16.13 12 18H6c-3.75 0-6-2.25-6-6V6c0-3.75 2.25-6 6-6zm24 12c0 3.75-2.25 6-6 6h-7.13c-1.87 0-3.37-1.13-3.37-3h9c2.25 0 3-.75 3-2.25s-.75-2.25-3-2.25h-3.38c-1.87 0-3.37-1.13-3.37-3h9.38A4.64 4.64 0 0 1 30 12zM18 0h7.88c1.87 0 3.37 1.13 3.37 3h-7.88C19.5 3 18 1.87 18 0z"/></svg>